<?xml version="1.0" encoding="UTF-8" standalone="no"?>
<!DOCTYPE svg PUBLIC "-//W3C//DTD SVG 1.1//EN"
 "http://www.w3.org/Graphics/SVG/1.1/DTD/svg11.dtd">
<!-- Generated by graphviz version 2.43.0 (0)
 -->
<!-- Title: %3 Pages: 1 -->
<svg width="1147pt" height="194pt"
 viewBox="0.00 0.00 1147.00 194.00" xmlns="http://www.w3.org/2000/svg" xmlns:xlink="http://www.w3.org/1999/xlink">
<g id="graph0" class="graph" transform="scale(1 1) rotate(0) translate(4 190)">
<title>%3</title>
<polygon fill="white" stroke="transparent" points="-4,4 -4,-190 1143,-190 1143,4 -4,4"/>
<!-- InputSet -->
<g id="node1" class="node">
<title>InputSet</title>
<polygon fill="none" stroke="black" points="157,-119.5 0,-119.5 0,-66.5 157,-66.5 157,-119.5"/>
<text text-anchor="middle" x="78.5" y="-104.3" font-family="Times,serif" font-size="14.00">INITIAL</text>
<text text-anchor="middle" x="78.5" y="-89.3" font-family="Times,serif" font-size="14.00">SAMPLING FRAME</text>
<text text-anchor="middle" x="78.5" y="-74.3" font-family="Times,serif" font-size="14.00">Size : 904 547</text>
</g>
<!-- FilterOperator_0_0_0 -->
<g id="node2" class="node">
<title>FilterOperator_0_0_0</title>
<polygon fill="none" stroke="black" points="307,-135 193,-135 193,-51 307,-51 307,-135"/>
<text text-anchor="middle" x="250" y="-119.8" font-family="Times,serif" font-size="14.00">Filter</text>
<text text-anchor="middle" x="250" y="-104.8" font-family="Times,serif" font-size="14.00">Operator</text>
<text text-anchor="middle" x="250" y="-73.8" font-family="Times,serif" font-size="14.00">SET#1</text>
<text text-anchor="middle" x="250" y="-58.8" font-family="Times,serif" font-size="14.00"> Size : 21 643</text>
</g>
<!-- InputSet&#45;&gt;FilterOperator_0_0_0 -->
<g id="edge1" class="edge">
<title>InputSet&#45;&gt;FilterOperator_0_0_0</title>
<path fill="none" stroke="black" d="M157.3,-93C165.84,-93 174.48,-93 182.85,-93"/>
<polygon fill="black" stroke="black" points="182.92,-96.5 192.92,-93 182.92,-89.5 182.92,-96.5"/>
</g>
<!-- GroupingOperator_0_0_1 -->
<g id="node3" class="node">
<title>GroupingOperator_0_0_1</title>
<polygon fill="none" stroke="black" points="426,-112 343,-112 343,-74 426,-74 426,-112"/>
<text text-anchor="middle" x="384.5" y="-96.8" font-family="Times,serif" font-size="14.00">Grouping</text>
<text text-anchor="middle" x="384.5" y="-81.8" font-family="Times,serif" font-size="14.00">Operator</text>
</g>
<!-- FilterOperator_0_0_0&#45;&gt;GroupingOperator_0_0_1 -->
<g id="edge2" class="edge">
<title>FilterOperator_0_0_0&#45;&gt;GroupingOperator_0_0_1</title>
<path fill="none" stroke="black" d="M307.19,-93C315.72,-93 324.47,-93 332.87,-93"/>
<polygon fill="black" stroke="black" points="332.89,-96.5 342.89,-93 332.89,-89.5 332.89,-96.5"/>
</g>
<!-- FilterOperator_1_0_0 -->
<g id="node4" class="node">
<title>FilterOperator_1_0_0</title>
<polygon fill="none" stroke="black" points="662.5,-186 465.5,-186 465.5,-102 662.5,-102 662.5,-186"/>
<text text-anchor="middle" x="564" y="-170.8" font-family="Times,serif" font-size="14.00">Filter Operator</text>
<text text-anchor="middle" x="564" y="-155.8" font-family="Times,serif" font-size="14.00">swh_commiter_count &lt; 5</text>
<text text-anchor="middle" x="564" y="-124.8" font-family="Times,serif" font-size="14.00">SET#2</text>
<text text-anchor="middle" x="564" y="-109.8" font-family="Times,serif" font-size="14.00"> Size : 15 805</text>
</g>
<!-- GroupingOperator_0_0_1&#45;&gt;FilterOperator_1_0_0 -->
<g id="edge3" class="edge">
<title>GroupingOperator_0_0_1&#45;&gt;FilterOperator_1_0_0</title>
<path fill="none" stroke="black" d="M426.22,-104.7C435.31,-107.31 445.36,-110.2 455.77,-113.19"/>
<polygon fill="black" stroke="black" points="454.83,-116.56 465.41,-115.96 456.77,-109.83 454.83,-116.56"/>
</g>
<!-- FilterOperator_1_1_0 -->
<g id="node6" class="node">
<title>FilterOperator_1_1_0</title>
<polygon fill="none" stroke="black" points="666,-84 462,-84 462,0 666,0 666,-84"/>
<text text-anchor="middle" x="564" y="-68.8" font-family="Times,serif" font-size="14.00">Filter Operator</text>
<text text-anchor="middle" x="564" y="-53.8" font-family="Times,serif" font-size="14.00">swh_commiter_count &gt;=5</text>
<text text-anchor="middle" x="564" y="-22.8" font-family="Times,serif" font-size="14.00">SET#4</text>
<text text-anchor="middle" x="564" y="-7.8" font-family="Times,serif" font-size="14.00"> Size : 5 838</text>
</g>
<!-- GroupingOperator_0_0_1&#45;&gt;FilterOperator_1_1_0 -->
<g id="edge5" class="edge">
<title>GroupingOperator_0_0_1&#45;&gt;FilterOperator_1_1_0</title>
<path fill="none" stroke="black" d="M426.22,-81.3C434.27,-78.99 443.08,-76.46 452.22,-73.83"/>
<polygon fill="black" stroke="black" points="453.2,-77.19 461.85,-71.06 451.27,-70.46 453.2,-77.19"/>
</g>
<!-- RandomSelectionOperator_1_0_1 -->
<g id="node5" class="node">
<title>RandomSelectionOperator_1_0_1</title>
<polygon fill="none" stroke="black" points="843,-186 702,-186 702,-102 843,-102 843,-186"/>
<text text-anchor="middle" x="772.5" y="-170.8" font-family="Times,serif" font-size="14.00">RandomSelection</text>
<text text-anchor="middle" x="772.5" y="-155.8" font-family="Times,serif" font-size="14.00">Operator</text>
<text text-anchor="middle" x="772.5" y="-124.8" font-family="Times,serif" font-size="14.00">SET#3</text>
<text text-anchor="middle" x="772.5" y="-109.8" font-family="Times,serif" font-size="14.00"> Size : 10 000</text>
</g>
<!-- FilterOperator_1_0_0&#45;&gt;RandomSelectionOperator_1_0_1 -->
<g id="edge4" class="edge">
<title>FilterOperator_1_0_0&#45;&gt;RandomSelectionOperator_1_0_1</title>
<path fill="none" stroke="black" d="M662.51,-144C672.24,-144 682.05,-144 691.58,-144"/>
<polygon fill="black" stroke="black" points="691.79,-147.5 701.79,-144 691.79,-140.5 691.79,-147.5"/>
</g>
<!-- UnionOperator_0_0_2 -->
<g id="node8" class="node">
<title>UnionOperator_0_0_2</title>
<polygon fill="none" stroke="black" points="993,-135 879,-135 879,-51 993,-51 993,-135"/>
<text text-anchor="middle" x="936" y="-119.8" font-family="Times,serif" font-size="14.00">Union</text>
<text text-anchor="middle" x="936" y="-104.8" font-family="Times,serif" font-size="14.00">Operator</text>
<text text-anchor="middle" x="936" y="-73.8" font-family="Times,serif" font-size="14.00">SET#6</text>
<text text-anchor="middle" x="936" y="-58.8" font-family="Times,serif" font-size="14.00"> Size : 15 838</text>
</g>
<!-- RandomSelectionOperator_1_0_1&#45;&gt;UnionOperator_0_0_2 -->
<g id="edge7" class="edge">
<title>RandomSelectionOperator_1_0_1&#45;&gt;UnionOperator_0_0_2</title>
<path fill="none" stroke="black" d="M843.4,-121.93C851.85,-119.26 860.47,-116.54 868.87,-113.88"/>
<polygon fill="black" stroke="black" points="870.12,-117.16 878.61,-110.81 868.02,-110.48 870.12,-117.16"/>
</g>
<!-- RandomSelectionOperator_1_1_1 -->
<g id="node7" class="node">
<title>RandomSelectionOperator_1_1_1</title>
<polygon fill="none" stroke="black" points="843,-84 702,-84 702,0 843,0 843,-84"/>
<text text-anchor="middle" x="772.5" y="-68.8" font-family="Times,serif" font-size="14.00">RandomSelection</text>
<text text-anchor="middle" x="772.5" y="-53.8" font-family="Times,serif" font-size="14.00">Operator</text>
<text text-anchor="middle" x="772.5" y="-22.8" font-family="Times,serif" font-size="14.00">SET#5</text>
<text text-anchor="middle" x="772.5" y="-7.8" font-family="Times,serif" font-size="14.00"> Size : 5 838</text>
</g>
<!-- FilterOperator_1_1_0&#45;&gt;RandomSelectionOperator_1_1_1 -->
<g id="edge6" class="edge">
<title>FilterOperator_1_1_0&#45;&gt;RandomSelectionOperator_1_1_1</title>
<path fill="none" stroke="black" d="M666.13,-42C674.71,-42 683.3,-42 691.67,-42"/>
<polygon fill="black" stroke="black" points="691.77,-45.5 701.77,-42 691.77,-38.5 691.77,-45.5"/>
</g>
<!-- RandomSelectionOperator_1_1_1&#45;&gt;UnionOperator_0_0_2 -->
<g id="edge8" class="edge">
<title>RandomSelectionOperator_1_1_1&#45;&gt;UnionOperator_0_0_2</title>
<path fill="none" stroke="black" d="M843.4,-64.07C851.85,-66.74 860.47,-69.46 868.87,-72.12"/>
<polygon fill="black" stroke="black" points="868.02,-75.52 878.61,-75.19 870.12,-68.84 868.02,-75.52"/>
</g>
<!-- OutputSet -->
<g id="node9" class="node">
<title>OutputSet</title>
<polygon fill="none" stroke="black" points="1139,-112 1029,-112 1029,-74 1139,-74 1139,-112"/>
<text text-anchor="middle" x="1084" y="-96.8" font-family="Times,serif" font-size="14.00">SAMPLE</text>
<text text-anchor="middle" x="1084" y="-81.8" font-family="Times,serif" font-size="14.00">Size : 15 838</text>
</g>
<!-- UnionOperator_0_0_2&#45;&gt;OutputSet -->
<g id="edge9" class="edge">
<title>UnionOperator_0_0_2&#45;&gt;OutputSet</title>
<path fill="none" stroke="black" d="M993.03,-93C1001.38,-93 1010.04,-93 1018.54,-93"/>
<polygon fill="black" stroke="black" points="1018.8,-96.5 1028.8,-93 1018.8,-89.5 1018.8,-96.5"/>
</g>
</g>
</svg>
