<?xml version="1.0" encoding="UTF-8" standalone="no"?>
<!DOCTYPE svg PUBLIC "-//W3C//DTD SVG 1.1//EN"
 "http://www.w3.org/Graphics/SVG/1.1/DTD/svg11.dtd">
<!-- Generated by graphviz version 2.43.0 (0)
 -->
<!-- Title: %3 Pages: 1 -->
<svg width="1156pt" height="194pt"
 viewBox="0.00 0.00 1156.00 194.00" xmlns="http://www.w3.org/2000/svg" xmlns:xlink="http://www.w3.org/1999/xlink">
<g id="graph0" class="graph" transform="scale(1 1) rotate(0) translate(4 190)">
<title>%3</title>
<polygon fill="white" stroke="transparent" points="-4,4 -4,-190 1152,-190 1152,4 -4,4"/>
<!-- InputSet -->
<g id="node1" class="node">
<title>InputSet</title>
<polygon fill="none" stroke="black" points="157,-119.5 0,-119.5 0,-66.5 157,-66.5 157,-119.5"/>
<text text-anchor="middle" x="78.5" y="-104.3" font-family="Times,serif" font-size="14.00">INITIAL</text>
<text text-anchor="middle" x="78.5" y="-89.3" font-family="Times,serif" font-size="14.00">SAMPLING FRAME</text>
<text text-anchor="middle" x="78.5" y="-74.3" font-family="Times,serif" font-size="14.00">Size : 27 133 980</text>
</g>
<!-- FilterOperator_0_0_0 -->
<g id="node2" class="node">
<title>FilterOperator_0_0_0</title>
<polygon fill="none" stroke="black" points="316,-135 193,-135 193,-51 316,-51 316,-135"/>
<text text-anchor="middle" x="254.5" y="-119.8" font-family="Times,serif" font-size="14.00">Filter</text>
<text text-anchor="middle" x="254.5" y="-104.8" font-family="Times,serif" font-size="14.00">Operator</text>
<text text-anchor="middle" x="254.5" y="-73.8" font-family="Times,serif" font-size="14.00">SET#1</text>
<text text-anchor="middle" x="254.5" y="-58.8" font-family="Times,serif" font-size="14.00"> Size : 650 395</text>
</g>
<!-- InputSet&#45;&gt;FilterOperator_0_0_0 -->
<g id="edge1" class="edge">
<title>InputSet&#45;&gt;FilterOperator_0_0_0</title>
<path fill="none" stroke="black" d="M157.09,-93C165.59,-93 174.22,-93 182.63,-93"/>
<polygon fill="black" stroke="black" points="182.77,-96.5 192.77,-93 182.77,-89.5 182.77,-96.5"/>
</g>
<!-- GroupingOperator_0_0_1 -->
<g id="node3" class="node">
<title>GroupingOperator_0_0_1</title>
<polygon fill="none" stroke="black" points="435,-112 352,-112 352,-74 435,-74 435,-112"/>
<text text-anchor="middle" x="393.5" y="-96.8" font-family="Times,serif" font-size="14.00">Grouping</text>
<text text-anchor="middle" x="393.5" y="-81.8" font-family="Times,serif" font-size="14.00">Operator</text>
</g>
<!-- FilterOperator_0_0_0&#45;&gt;GroupingOperator_0_0_1 -->
<g id="edge2" class="edge">
<title>FilterOperator_0_0_0&#45;&gt;GroupingOperator_0_0_1</title>
<path fill="none" stroke="black" d="M316.39,-93C324.83,-93 333.43,-93 341.66,-93"/>
<polygon fill="black" stroke="black" points="341.85,-96.5 351.85,-93 341.85,-89.5 341.85,-96.5"/>
</g>
<!-- FilterOperator_1_0_0 -->
<g id="node4" class="node">
<title>FilterOperator_1_0_0</title>
<polygon fill="none" stroke="black" points="671.5,-186 474.5,-186 474.5,-102 671.5,-102 671.5,-186"/>
<text text-anchor="middle" x="573" y="-170.8" font-family="Times,serif" font-size="14.00">Filter Operator</text>
<text text-anchor="middle" x="573" y="-155.8" font-family="Times,serif" font-size="14.00">swh_commiter_count &lt; 5</text>
<text text-anchor="middle" x="573" y="-124.8" font-family="Times,serif" font-size="14.00">SET#2</text>
<text text-anchor="middle" x="573" y="-109.8" font-family="Times,serif" font-size="14.00"> Size : 475 832</text>
</g>
<!-- GroupingOperator_0_0_1&#45;&gt;FilterOperator_1_0_0 -->
<g id="edge3" class="edge">
<title>GroupingOperator_0_0_1&#45;&gt;FilterOperator_1_0_0</title>
<path fill="none" stroke="black" d="M435.22,-104.7C444.31,-107.31 454.36,-110.2 464.77,-113.19"/>
<polygon fill="black" stroke="black" points="463.83,-116.56 474.41,-115.96 465.77,-109.83 463.83,-116.56"/>
</g>
<!-- FilterOperator_1_1_0 -->
<g id="node6" class="node">
<title>FilterOperator_1_1_0</title>
<polygon fill="none" stroke="black" points="675,-84 471,-84 471,0 675,0 675,-84"/>
<text text-anchor="middle" x="573" y="-68.8" font-family="Times,serif" font-size="14.00">Filter Operator</text>
<text text-anchor="middle" x="573" y="-53.8" font-family="Times,serif" font-size="14.00">swh_commiter_count &gt;=5</text>
<text text-anchor="middle" x="573" y="-22.8" font-family="Times,serif" font-size="14.00">SET#4</text>
<text text-anchor="middle" x="573" y="-7.8" font-family="Times,serif" font-size="14.00"> Size : 174 563</text>
</g>
<!-- GroupingOperator_0_0_1&#45;&gt;FilterOperator_1_1_0 -->
<g id="edge5" class="edge">
<title>GroupingOperator_0_0_1&#45;&gt;FilterOperator_1_1_0</title>
<path fill="none" stroke="black" d="M435.22,-81.3C443.27,-78.99 452.08,-76.46 461.22,-73.83"/>
<polygon fill="black" stroke="black" points="462.2,-77.19 470.85,-71.06 460.27,-70.46 462.2,-77.19"/>
</g>
<!-- RandomSelectionOperator_1_0_1 -->
<g id="node5" class="node">
<title>RandomSelectionOperator_1_0_1</title>
<polygon fill="none" stroke="black" points="852,-186 711,-186 711,-102 852,-102 852,-186"/>
<text text-anchor="middle" x="781.5" y="-170.8" font-family="Times,serif" font-size="14.00">RandomSelection</text>
<text text-anchor="middle" x="781.5" y="-155.8" font-family="Times,serif" font-size="14.00">Operator</text>
<text text-anchor="middle" x="781.5" y="-124.8" font-family="Times,serif" font-size="14.00">SET#3</text>
<text text-anchor="middle" x="781.5" y="-109.8" font-family="Times,serif" font-size="14.00"> Size : 10 000</text>
</g>
<!-- FilterOperator_1_0_0&#45;&gt;RandomSelectionOperator_1_0_1 -->
<g id="edge4" class="edge">
<title>FilterOperator_1_0_0&#45;&gt;RandomSelectionOperator_1_0_1</title>
<path fill="none" stroke="black" d="M671.51,-144C681.24,-144 691.05,-144 700.58,-144"/>
<polygon fill="black" stroke="black" points="700.79,-147.5 710.79,-144 700.79,-140.5 700.79,-147.5"/>
</g>
<!-- UnionOperator_0_0_2 -->
<g id="node8" class="node">
<title>UnionOperator_0_0_2</title>
<polygon fill="none" stroke="black" points="1002,-135 888,-135 888,-51 1002,-51 1002,-135"/>
<text text-anchor="middle" x="945" y="-119.8" font-family="Times,serif" font-size="14.00">Union</text>
<text text-anchor="middle" x="945" y="-104.8" font-family="Times,serif" font-size="14.00">Operator</text>
<text text-anchor="middle" x="945" y="-73.8" font-family="Times,serif" font-size="14.00">SET#6</text>
<text text-anchor="middle" x="945" y="-58.8" font-family="Times,serif" font-size="14.00"> Size : 20 000</text>
</g>
<!-- RandomSelectionOperator_1_0_1&#45;&gt;UnionOperator_0_0_2 -->
<g id="edge7" class="edge">
<title>RandomSelectionOperator_1_0_1&#45;&gt;UnionOperator_0_0_2</title>
<path fill="none" stroke="black" d="M852.4,-121.93C860.85,-119.26 869.47,-116.54 877.87,-113.88"/>
<polygon fill="black" stroke="black" points="879.12,-117.16 887.61,-110.81 877.02,-110.48 879.12,-117.16"/>
</g>
<!-- RandomSelectionOperator_1_1_1 -->
<g id="node7" class="node">
<title>RandomSelectionOperator_1_1_1</title>
<polygon fill="none" stroke="black" points="852,-84 711,-84 711,0 852,0 852,-84"/>
<text text-anchor="middle" x="781.5" y="-68.8" font-family="Times,serif" font-size="14.00">RandomSelection</text>
<text text-anchor="middle" x="781.5" y="-53.8" font-family="Times,serif" font-size="14.00">Operator</text>
<text text-anchor="middle" x="781.5" y="-22.8" font-family="Times,serif" font-size="14.00">SET#5</text>
<text text-anchor="middle" x="781.5" y="-7.8" font-family="Times,serif" font-size="14.00"> Size : 10 000</text>
</g>
<!-- FilterOperator_1_1_0&#45;&gt;RandomSelectionOperator_1_1_1 -->
<g id="edge6" class="edge">
<title>FilterOperator_1_1_0&#45;&gt;RandomSelectionOperator_1_1_1</title>
<path fill="none" stroke="black" d="M675.13,-42C683.71,-42 692.3,-42 700.67,-42"/>
<polygon fill="black" stroke="black" points="700.77,-45.5 710.77,-42 700.77,-38.5 700.77,-45.5"/>
</g>
<!-- RandomSelectionOperator_1_1_1&#45;&gt;UnionOperator_0_0_2 -->
<g id="edge8" class="edge">
<title>RandomSelectionOperator_1_1_1&#45;&gt;UnionOperator_0_0_2</title>
<path fill="none" stroke="black" d="M852.4,-64.07C860.85,-66.74 869.47,-69.46 877.87,-72.12"/>
<polygon fill="black" stroke="black" points="877.02,-75.52 887.61,-75.19 879.12,-68.84 877.02,-75.52"/>
</g>
<!-- OutputSet -->
<g id="node9" class="node">
<title>OutputSet</title>
<polygon fill="none" stroke="black" points="1148,-112 1038,-112 1038,-74 1148,-74 1148,-112"/>
<text text-anchor="middle" x="1093" y="-96.8" font-family="Times,serif" font-size="14.00">SAMPLE</text>
<text text-anchor="middle" x="1093" y="-81.8" font-family="Times,serif" font-size="14.00">Size : 20 000</text>
</g>
<!-- UnionOperator_0_0_2&#45;&gt;OutputSet -->
<g id="edge9" class="edge">
<title>UnionOperator_0_0_2&#45;&gt;OutputSet</title>
<path fill="none" stroke="black" d="M1002.03,-93C1010.38,-93 1019.04,-93 1027.54,-93"/>
<polygon fill="black" stroke="black" points="1027.8,-96.5 1037.8,-93 1027.8,-89.5 1027.8,-96.5"/>
</g>
</g>
</svg>
