<?xml version="1.0" encoding="UTF-8" standalone="no"?>
<!DOCTYPE svg PUBLIC "-//W3C//DTD SVG 1.1//EN"
 "http://www.w3.org/Graphics/SVG/1.1/DTD/svg11.dtd">
<!-- Generated by graphviz version 2.43.0 (0)
 -->
<!-- Title: %3 Pages: 1 -->
<svg width="1440pt" height="194pt"
 viewBox="0.00 0.00 1440.00 194.00" xmlns="http://www.w3.org/2000/svg" xmlns:xlink="http://www.w3.org/1999/xlink">
<g id="graph0" class="graph" transform="scale(1 1) rotate(0) translate(4 190)">
<title>%3</title>
<polygon fill="white" stroke="transparent" points="-4,4 -4,-190 1436,-190 1436,4 -4,4"/>
<!-- InputSet -->
<g id="node1" class="node">
<title>InputSet</title>
<polygon fill="none" stroke="black" points="157,-119.5 0,-119.5 0,-66.5 157,-66.5 157,-119.5"/>
<text text-anchor="middle" x="78.5" y="-104.3" font-family="Times,serif" font-size="14.00">INITIAL</text>
<text text-anchor="middle" x="78.5" y="-89.3" font-family="Times,serif" font-size="14.00">SAMPLING FRAME</text>
<text text-anchor="middle" x="78.5" y="-74.3" font-family="Times,serif" font-size="14.00">Size : 27 133 980</text>
</g>
<!-- FilterOperator_0_0_0 -->
<g id="node2" class="node">
<title>FilterOperator_0_0_0</title>
<polygon fill="none" stroke="black" points="600,-135 193,-135 193,-51 600,-51 600,-135"/>
<text text-anchor="middle" x="396.5" y="-119.8" font-family="Times,serif" font-size="14.00">Filter Operator</text>
<text text-anchor="middle" x="396.5" y="-104.8" font-family="Times,serif" font-size="14.00">swh_latest_commit_date.is_after(2023&#45;01&#45;01 00:00:00)</text>
<text text-anchor="middle" x="396.5" y="-73.8" font-family="Times,serif" font-size="14.00">SET#1</text>
<text text-anchor="middle" x="396.5" y="-58.8" font-family="Times,serif" font-size="14.00"> Size : 650 395</text>
</g>
<!-- InputSet&#45;&gt;FilterOperator_0_0_0 -->
<g id="edge1" class="edge">
<title>InputSet&#45;&gt;FilterOperator_0_0_0</title>
<path fill="none" stroke="black" d="M157.21,-93C165.37,-93 173.93,-93 182.74,-93"/>
<polygon fill="black" stroke="black" points="182.8,-96.5 192.8,-93 182.8,-89.5 182.8,-96.5"/>
</g>
<!-- GroupingOperator_0_0_1 -->
<g id="node3" class="node">
<title>GroupingOperator_0_0_1</title>
<polygon fill="none" stroke="black" points="719,-112 636,-112 636,-74 719,-74 719,-112"/>
<text text-anchor="middle" x="677.5" y="-96.8" font-family="Times,serif" font-size="14.00">Grouping</text>
<text text-anchor="middle" x="677.5" y="-81.8" font-family="Times,serif" font-size="14.00">Operator</text>
</g>
<!-- FilterOperator_0_0_0&#45;&gt;GroupingOperator_0_0_1 -->
<g id="edge2" class="edge">
<title>FilterOperator_0_0_0&#45;&gt;GroupingOperator_0_0_1</title>
<path fill="none" stroke="black" d="M600.26,-93C609.31,-93 617.91,-93 625.85,-93"/>
<polygon fill="black" stroke="black" points="625.89,-96.5 635.89,-93 625.89,-89.5 625.89,-96.5"/>
</g>
<!-- FilterOperator_1_0_0 -->
<g id="node4" class="node">
<title>FilterOperator_1_0_0</title>
<polygon fill="none" stroke="black" points="955.5,-186 758.5,-186 758.5,-102 955.5,-102 955.5,-186"/>
<text text-anchor="middle" x="857" y="-170.8" font-family="Times,serif" font-size="14.00">Filter Operator</text>
<text text-anchor="middle" x="857" y="-155.8" font-family="Times,serif" font-size="14.00">swh_commiter_count &lt; 5</text>
<text text-anchor="middle" x="857" y="-124.8" font-family="Times,serif" font-size="14.00">SET#2</text>
<text text-anchor="middle" x="857" y="-109.8" font-family="Times,serif" font-size="14.00"> Size : 475 832</text>
</g>
<!-- GroupingOperator_0_0_1&#45;&gt;FilterOperator_1_0_0 -->
<g id="edge3" class="edge">
<title>GroupingOperator_0_0_1&#45;&gt;FilterOperator_1_0_0</title>
<path fill="none" stroke="black" d="M719.22,-104.7C728.31,-107.31 738.36,-110.2 748.77,-113.19"/>
<polygon fill="black" stroke="black" points="747.83,-116.56 758.41,-115.96 749.77,-109.83 747.83,-116.56"/>
</g>
<!-- FilterOperator_1_1_0 -->
<g id="node6" class="node">
<title>FilterOperator_1_1_0</title>
<polygon fill="none" stroke="black" points="959,-84 755,-84 755,0 959,0 959,-84"/>
<text text-anchor="middle" x="857" y="-68.8" font-family="Times,serif" font-size="14.00">Filter Operator</text>
<text text-anchor="middle" x="857" y="-53.8" font-family="Times,serif" font-size="14.00">swh_commiter_count &gt;=5</text>
<text text-anchor="middle" x="857" y="-22.8" font-family="Times,serif" font-size="14.00">SET#4</text>
<text text-anchor="middle" x="857" y="-7.8" font-family="Times,serif" font-size="14.00"> Size : 174 563</text>
</g>
<!-- GroupingOperator_0_0_1&#45;&gt;FilterOperator_1_1_0 -->
<g id="edge5" class="edge">
<title>GroupingOperator_0_0_1&#45;&gt;FilterOperator_1_1_0</title>
<path fill="none" stroke="black" d="M719.22,-81.3C727.27,-78.99 736.08,-76.46 745.22,-73.83"/>
<polygon fill="black" stroke="black" points="746.2,-77.19 754.85,-71.06 744.27,-70.46 746.2,-77.19"/>
</g>
<!-- RandomSelectionOperator_1_0_1 -->
<g id="node5" class="node">
<title>RandomSelectionOperator_1_0_1</title>
<polygon fill="none" stroke="black" points="1136,-186 995,-186 995,-102 1136,-102 1136,-186"/>
<text text-anchor="middle" x="1065.5" y="-170.8" font-family="Times,serif" font-size="14.00">RandomSelection</text>
<text text-anchor="middle" x="1065.5" y="-155.8" font-family="Times,serif" font-size="14.00">Operator</text>
<text text-anchor="middle" x="1065.5" y="-124.8" font-family="Times,serif" font-size="14.00">SET#3</text>
<text text-anchor="middle" x="1065.5" y="-109.8" font-family="Times,serif" font-size="14.00"> Size : 10 000</text>
</g>
<!-- FilterOperator_1_0_0&#45;&gt;RandomSelectionOperator_1_0_1 -->
<g id="edge4" class="edge">
<title>FilterOperator_1_0_0&#45;&gt;RandomSelectionOperator_1_0_1</title>
<path fill="none" stroke="black" d="M955.51,-144C965.24,-144 975.05,-144 984.58,-144"/>
<polygon fill="black" stroke="black" points="984.79,-147.5 994.79,-144 984.79,-140.5 984.79,-147.5"/>
</g>
<!-- UnionOperator_0_0_2 -->
<g id="node8" class="node">
<title>UnionOperator_0_0_2</title>
<polygon fill="none" stroke="black" points="1286,-135 1172,-135 1172,-51 1286,-51 1286,-135"/>
<text text-anchor="middle" x="1229" y="-119.8" font-family="Times,serif" font-size="14.00">Union</text>
<text text-anchor="middle" x="1229" y="-104.8" font-family="Times,serif" font-size="14.00">Operator</text>
<text text-anchor="middle" x="1229" y="-73.8" font-family="Times,serif" font-size="14.00">SET#6</text>
<text text-anchor="middle" x="1229" y="-58.8" font-family="Times,serif" font-size="14.00"> Size : 20 000</text>
</g>
<!-- RandomSelectionOperator_1_0_1&#45;&gt;UnionOperator_0_0_2 -->
<g id="edge7" class="edge">
<title>RandomSelectionOperator_1_0_1&#45;&gt;UnionOperator_0_0_2</title>
<path fill="none" stroke="black" d="M1136.4,-121.93C1144.85,-119.26 1153.47,-116.54 1161.87,-113.88"/>
<polygon fill="black" stroke="black" points="1163.12,-117.16 1171.61,-110.81 1161.02,-110.48 1163.12,-117.16"/>
</g>
<!-- RandomSelectionOperator_1_1_1 -->
<g id="node7" class="node">
<title>RandomSelectionOperator_1_1_1</title>
<polygon fill="none" stroke="black" points="1136,-84 995,-84 995,0 1136,0 1136,-84"/>
<text text-anchor="middle" x="1065.5" y="-68.8" font-family="Times,serif" font-size="14.00">RandomSelection</text>
<text text-anchor="middle" x="1065.5" y="-53.8" font-family="Times,serif" font-size="14.00">Operator</text>
<text text-anchor="middle" x="1065.5" y="-22.8" font-family="Times,serif" font-size="14.00">SET#5</text>
<text text-anchor="middle" x="1065.5" y="-7.8" font-family="Times,serif" font-size="14.00"> Size : 10 000</text>
</g>
<!-- FilterOperator_1_1_0&#45;&gt;RandomSelectionOperator_1_1_1 -->
<g id="edge6" class="edge">
<title>FilterOperator_1_1_0&#45;&gt;RandomSelectionOperator_1_1_1</title>
<path fill="none" stroke="black" d="M959.13,-42C967.71,-42 976.3,-42 984.67,-42"/>
<polygon fill="black" stroke="black" points="984.77,-45.5 994.77,-42 984.77,-38.5 984.77,-45.5"/>
</g>
<!-- RandomSelectionOperator_1_1_1&#45;&gt;UnionOperator_0_0_2 -->
<g id="edge8" class="edge">
<title>RandomSelectionOperator_1_1_1&#45;&gt;UnionOperator_0_0_2</title>
<path fill="none" stroke="black" d="M1136.4,-64.07C1144.85,-66.74 1153.47,-69.46 1161.87,-72.12"/>
<polygon fill="black" stroke="black" points="1161.02,-75.52 1171.61,-75.19 1163.12,-68.84 1161.02,-75.52"/>
</g>
<!-- OutputSet -->
<g id="node9" class="node">
<title>OutputSet</title>
<polygon fill="none" stroke="black" points="1432,-112 1322,-112 1322,-74 1432,-74 1432,-112"/>
<text text-anchor="middle" x="1377" y="-96.8" font-family="Times,serif" font-size="14.00">SAMPLE</text>
<text text-anchor="middle" x="1377" y="-81.8" font-family="Times,serif" font-size="14.00">Size : 20 000</text>
</g>
<!-- UnionOperator_0_0_2&#45;&gt;OutputSet -->
<g id="edge9" class="edge">
<title>UnionOperator_0_0_2&#45;&gt;OutputSet</title>
<path fill="none" stroke="black" d="M1286.03,-93C1294.38,-93 1303.04,-93 1311.54,-93"/>
<polygon fill="black" stroke="black" points="1311.8,-96.5 1321.8,-93 1311.8,-89.5 1311.8,-96.5"/>
</g>
</g>
</svg>
